<?xml version="1.0" encoding="utf-8"?>
<!DOCTYPE svg PUBLIC "-//W3C//DTD SVG 1.0//EN" "http://www.w3.org/TR/2001/REC-SVG-20010904/DTD/svg10.dtd">
<svg version="1.0" xmlns="http://www.w3.org/2000/svg" width="168px" height="168px" viewBox="0 0 168 168" preserveAspectRatio="xMidYMid meet">
   <defs>
      <linearGradient id="lg0" gradientUnits="userSpaceOnUse" x1="7.7380953%" y1="50.0%" x2="91.666664%" y2="50.0%">
         <stop offset="0%" style="stop-color:rgb(76,236,242);"></stop>
         <stop offset="100%" style="stop-color:rgb(61,148,213);"></stop>
      </linearGradient>
   </defs>
 <g fill="#ffffff">
  <path fill="url(#lg0)" d="M28 158.1 c-8.3 -2.6 -15.1 -9.3 -17.4 -17.2 -2 -6.6 -2 -9.2 0 -16 1.5 -5.2 3.2 -7.1 50.2 -53.9 26.8 -26.8 49.6 -49.6 50.6 -50.8 l1.9 -2.2 -12 0 -11.9 0 -5.9 8.8 c-3.3 4.8 -9.3 12.1 -13.5 16.3 -6.9 7 -8.8 8.2 -23.3 15.3 -14 6.8 -16.5 8.4 -23 14.9 -4.1 3.9 -8.8 8.9 -10.5 11.1 l-3 3.9 -0.8 -4.9 c-1 -6.9 0.3 -31.8 2.1 -39.2 4.2 -17.4 15.3 -27.6 34.7 -31.9 6.1 -1.3 14.1 -1.6 49.8 -1.4 38.4 0.2 42.8 0.4 46.5 2 5.1 2.3 11.8 9.6 13.6 14.7 2 5.9 1.6 14.4 -0.9 19.5 -1.5 3.1 -17 19.4 -51.2 53.8 -26.9 27.2 -49 49.9 -49 50.3 0 0.4 5.5 0.8 12.3 0.8 l12.2 0 6.2 -9.3 c10.9 -16.3 19.8 -24 35.4 -30.8 12.8 -5.6 20.9 -11 28.9 -19.6 3.8 -4.1 7 -7.9 7 -8.4 0 -0.5 0.5 -0.9 1 -0.9 0.6 0 1 6.4 1 17.3 0 24.5 -3 34.9 -12.7 44.9 -6.1 6.2 -15.9 10.6 -27.6 12.4 -10.1 1.5 -86 1.9 -90.7 0.5z m15.9 -8.6 c1.4 -0.7 13.3 -12.1 26.4 -25.2 l23.7 -23.8 -13 -13 -13 -13 -24.1 24 c-13.2 13.2 -24.7 25.2 -25.5 26.7 -1.9 3.6 -1.8 12.2 0.2 16.5 4.2 8.7 16.4 12.5 25.3 7.8z m72.1 1.6 c9.7 -1.3 14.3 -2.8 19.7 -6.4 6.5 -4.4 11.8 -12.6 14.3 -22.3 2.2 -8.4 3.7 -21.4 2.6 -21.4 -0.4 0 -3.3 2.1 -6.4 4.8 -5.3 4.4 -10 7 -27.7 15.3 -8 3.7 -17.3 12 -24.1 21.6 -7 9.8 -7.2 9.3 4.7 9.3 5.7 -0.1 13.3 -0.4 16.9 -0.9z m7.2 -79.5 c12.8 -12.6 24.2 -24.3 25.3 -26 2.9 -4.6 2.7 -13.9 -0.3 -18.9 -4.6 -7.2 -14.8 -10.7 -22.9 -7.7 -2.8 1.1 -51.3 48.7 -51.3 50.3 0 1.2 24.3 25.8 25.2 25.5 0.3 -0.2 11.1 -10.6 24 -23.2z m-94.4 -12.5 c2.1 -1.4 8.2 -4.5 13.7 -6.9 16.7 -7.4 22.6 -12.2 33.1 -26.8 2.4 -3.4 4.4 -6.4 4.4 -6.8 0 -0.3 -5.6 -0.6 -12.4 -0.6 -20.2 0 -32.6 3.7 -39.8 11.9 -6.2 7 -10.7 20.6 -10.8 32.4 l0 5.9 4.1 -3.4 c2.2 -1.8 5.7 -4.4 7.7 -5.7z"/>
 </g>
</svg>